<svg width="90" height="130" viewBox="0 0 90 130" fill="none" xmlns="http://www.w3.org/2000/svg">
<path d="M45.432 0V0.0092857C42.8444 -0.0964137 40.3009 0.72373 38.232 2.33088H38.223C36.5331 3.65571 35.2418 5.4476 34.4987 7.49882C33.7556 9.55004 33.5912 11.7766 34.0245 13.9203H24.75C24.4545 13.9251 24.1628 13.99 23.8917 14.1111C23.6205 14.2323 23.3751 14.4074 23.1695 14.6264C22.9639 14.8455 22.8021 15.1042 22.6934 15.3877C22.5847 15.6713 22.5312 15.9741 22.536 16.279L22.5 16.2233V18.5635H2.25V18.5913L0 18.5635V127.678C0 128.294 0.237053 128.885 0.65901 129.32C1.08097 129.755 1.65326 130 2.25 130H87.75C88.3467 130 88.919 129.755 89.341 129.32C89.7629 128.885 90 128.294 90 127.678V18.596L87.75 18.5728V18.5635H67.5V16.214L67.464 16.2604C67.4688 15.6479 67.2388 15.0582 66.8241 14.6199C66.4094 14.1815 65.8436 13.9301 65.25 13.9203H56.0025C56.3342 12.2714 56.3132 10.5676 55.941 8.92791C55.5688 7.28822 54.8543 5.75207 53.8474 4.42666C52.8405 3.10124 51.5655 2.01849 50.1112 1.25394C48.657 0.489385 47.0585 0.0614534 45.4275 0H45.432ZM45.2655 4.6339C46.4268 4.67586 47.5578 5.02747 48.5483 5.6545C49.5387 6.28153 50.3549 7.16258 50.9173 8.21182C51.4797 9.26107 51.769 10.4427 51.7573 11.6417C51.7455 12.8406 51.4329 14.016 50.85 15.0532C50.5771 15.5454 50.4883 16.1236 50.6002 16.6787C50.7121 17.2339 51.0171 17.7276 51.4575 18.0666L51.4665 18.0759C51.5493 18.1425 51.6365 18.203 51.7275 18.257L51.7725 18.2756C52.11 18.4674 52.4897 18.5665 52.875 18.5635H63V20.5043C62.9595 20.7564 62.9595 21.0137 63 21.2658V29.7907C62.9595 30.0428 62.9595 30.3001 63 30.5522V32.493H27V30.5336C27.0386 30.2876 27.0386 30.0367 27 29.7907V21.2472C27.0386 21.0012 27.0386 20.7504 27 20.5043V18.5635H37.125C37.5284 18.5703 37.9261 18.4651 38.2766 18.2588C38.627 18.0526 38.9173 17.7529 39.1169 17.3912C39.3166 17.0294 39.4183 16.619 39.4115 16.2028C39.4046 15.7865 39.2895 15.3799 39.078 15.0254C39.0323 14.8755 38.972 14.7308 38.898 14.5935C38.2278 13.144 38.0651 11.4997 38.4376 9.94029C38.8101 8.38092 39.6947 7.00292 40.941 6.04079C42.1809 5.07236 43.7114 4.57539 45.2655 4.6339ZM4.5 23.2067H22.5V27.8498H11.25C10.6533 27.8498 10.081 28.0944 9.65901 28.5298C9.23705 28.9652 9 29.5557 9 30.1714V118.392C9 119.008 9.23705 119.598 9.65901 120.034C10.081 120.469 10.6533 120.714 11.25 120.714H64.836C65.2493 120.793 65.6758 120.75 66.0671 120.592C66.4584 120.434 66.7989 120.165 67.05 119.817L80.145 106.31C80.4705 106.054 80.7222 105.711 80.8728 105.319C81.0235 104.926 81.0675 104.498 81 104.082V30.1714C81 29.5557 80.7629 28.9652 80.341 28.5298C79.919 28.0944 79.3467 27.8498 78.75 27.8498H67.5V23.2067H85.5V125.357H4.5V23.2067ZM13.5 32.493H22.5V34.7961C22.4997 35.3232 22.6734 35.8348 22.9923 36.2466C23.3113 36.6584 23.7566 36.946 24.255 37.0619H24.318C24.354 37.0628 24.39 37.0628 24.426 37.0619C24.5239 37.0842 24.6231 37.0997 24.723 37.1084H65.25C65.8467 37.1084 66.419 36.8638 66.841 36.4284C67.2629 35.993 67.5 35.4025 67.5 34.7868V32.493H76.5V102.15H65.25C64.6533 102.15 64.081 102.395 63.659 102.83C63.2371 103.266 63 103.856 63 104.472V116.07H13.5V32.493ZM33.795 46.4226C33.2109 46.4386 32.6558 46.6883 32.247 47.1191L24.795 54.7571L21.8565 51.753C19.7325 49.4825 16.47 52.8673 18.684 55.0496L23.202 59.6789C23.6236 60.1113 24.1938 60.354 24.7883 60.354C25.3827 60.354 25.9529 60.1113 26.3745 59.6789L35.4105 50.4111C35.7357 50.0861 35.9583 49.6675 36.0492 49.2099C36.1402 48.7523 36.0952 48.277 35.9202 47.8462C35.7452 47.4154 35.4484 47.049 35.0684 46.795C34.6885 46.5411 34.2431 46.4113 33.7905 46.4226H33.795ZM42.5565 46.4226C39.555 46.5805 39.7845 51.2237 42.7815 51.0658H56.2815C59.328 51.1122 59.328 46.3762 56.2815 46.4226H42.7815C42.7065 46.4187 42.6315 46.4187 42.5565 46.4226ZM42.6105 55.709C39.609 55.8669 39.8385 60.51 42.8355 60.3522H69.66C72.7065 60.3986 72.7065 55.6625 69.66 55.709H42.84C42.7636 55.705 42.6869 55.705 42.6105 55.709ZM33.7905 69.6385C33.208 69.6557 32.6547 69.9054 32.247 70.335L24.795 77.9731L21.8565 74.9689C19.7325 72.6984 16.47 76.0833 18.684 78.2656L23.202 82.8948C23.6236 83.3272 24.1938 83.57 24.7883 83.57C25.3827 83.57 25.9529 83.3272 26.3745 82.8948L35.4105 73.627C35.7357 73.302 35.9583 72.8834 36.0492 72.4258C36.1402 71.9682 36.0952 71.4929 35.9202 71.0621C35.7452 70.6313 35.4484 70.265 35.0684 70.011C34.6885 69.757 34.2431 69.6272 33.7905 69.6385ZM42.5565 69.6385C39.555 69.7964 39.7845 74.4396 42.7815 74.2817H56.2815C59.328 74.3282 59.328 69.5921 56.2815 69.6385H42.7815C42.7065 69.6347 42.6315 69.6347 42.5565 69.6385ZM42.6105 78.9249C39.609 79.0828 39.8385 83.726 42.8355 83.5681H69.66C72.7065 83.6145 72.7065 78.8785 69.66 78.9249H42.84C42.7636 78.9209 42.6869 78.9209 42.6105 78.9249ZM33.7905 92.8545C33.208 92.8717 32.6547 93.1213 32.247 93.551L24.795 101.189L21.8565 98.1849C19.7325 95.9144 16.47 99.2992 18.684 101.482L23.202 106.111C23.6236 106.543 24.1938 106.786 24.7883 106.786C25.3827 106.786 25.9529 106.543 26.3745 106.111L35.4105 96.843C35.7357 96.518 35.9583 96.0993 36.0492 95.6417C36.1402 95.1841 36.0952 94.7089 35.9202 94.2781C35.7452 93.8472 35.4484 93.4809 35.0684 93.2269C34.6885 92.973 34.2431 92.8432 33.7905 92.8545ZM42.5565 92.8545C39.555 93.0124 39.7845 97.6555 42.7815 97.4977H56.2815C59.328 97.5441 59.328 92.8081 56.2815 92.8545H42.7815C42.7065 92.8506 42.6315 92.8506 42.5565 92.8545ZM42.6105 102.141C39.609 102.299 39.8385 106.942 42.8355 106.784H56.16C59.2065 106.83 59.2065 102.094 56.16 102.141H42.84C42.7636 102.137 42.6869 102.137 42.6105 102.141ZM67.5 106.793H73.3185L67.5 112.788V106.793Z" fill="#2C2C2C"/>
</svg>
