<svg width="32" height="22" viewBox="0 0 32 22" fill="none" xmlns="http://www.w3.org/2000/svg">
<path d="M9.77561 11.3165L0 17.9158V4.71713L9.77561 11.3165ZM22.2244 11.3165L32 17.9158V4.71713L22.2244 11.3165ZM20.7961 12.2835L16.4254 15.2332C16.2966 15.3181 16.1483 15.3626 16 15.3626C15.8517 15.3626 15.7034 15.3181 15.5746 15.2332L11.2039 12.2835L0.647805 19.4088L0.035122 19.8215C0.226342 20.9625 1.18634 21.8365 2.34146 21.8365H29.6585C30.8137 21.8365 31.7737 20.9666 31.9649 19.8215L31.3483 19.4088L20.7961 12.2835ZM16 13.5864L31.3483 3.22409L31.9649 2.81138C31.7737 1.66632 30.8137 0.796387 29.6585 0.796387H2.34146C1.18634 0.796387 0.226342 1.67036 0.035122 2.81138L0.647805 3.22409L16 13.5864Z" fill="#EDF1F4"/>
</svg>
