<svg width="130" height="130" viewBox="0 0 130 130" fill="none" xmlns="http://www.w3.org/2000/svg">
<g clip-path="url(#clip0_1467_21)">
<path d="M59.5837 51.4583H48.7503C48.032 51.4583 47.3432 51.7436 46.8352 52.2515C46.3273 52.7594 46.042 53.4483 46.042 54.1666C46.042 54.8849 46.3273 55.5738 46.8352 56.0817C47.3432 56.5896 48.032 56.8749 48.7503 56.8749H56.8753V62.2916H48.7503C48.032 62.2916 47.3432 62.5769 46.8352 63.0848C46.3273 63.5927 46.042 64.2816 46.042 64.9999V75.8333C46.042 76.5515 46.3273 77.2404 46.8352 77.7483C47.3432 78.2562 48.032 78.5416 48.7503 78.5416H59.5837C60.302 78.5416 60.9908 78.2562 61.4987 77.7483C62.0067 77.2404 62.292 76.5515 62.292 75.8333C62.292 75.115 62.0067 74.4261 61.4987 73.9182C60.9908 73.4103 60.302 73.1249 59.5837 73.1249H51.4587V67.7083H59.5837C60.302 67.7083 60.9908 67.4229 61.4987 66.915C62.0067 66.4071 62.292 65.7182 62.292 64.9999V54.1666C62.292 53.4483 62.0067 52.7594 61.4987 52.2515C60.9908 51.7436 60.302 51.4583 59.5837 51.4583ZM78.542 54.1666V62.2916H73.1253V54.1666C73.1253 53.4483 72.84 52.7594 72.3321 52.2515C71.8242 51.7436 71.1353 51.4583 70.417 51.4583C69.6987 51.4583 69.0098 51.7436 68.5019 52.2515C67.994 52.7594 67.7087 53.4483 67.7087 54.1666V64.9999C67.7087 65.7182 67.994 66.4071 68.5019 66.915C69.0098 67.4229 69.6987 67.7083 70.417 67.7083H78.542V75.8333C78.542 76.5515 78.8273 77.2404 79.3352 77.7483C79.8432 78.2562 80.532 78.5416 81.2503 78.5416C81.9686 78.5416 82.6575 78.2562 83.1654 77.7483C83.6733 77.2404 83.9587 76.5515 83.9587 75.8333V54.1666C83.9587 53.4483 83.6733 52.7594 83.1654 52.2515C82.6575 51.7436 81.9686 51.4583 81.2503 51.4583C80.532 51.4583 79.8432 51.7436 79.3352 52.2515C78.8273 52.7594 78.542 53.4483 78.542 54.1666Z" fill="#2C2C2C"/>
<path d="M64.9997 27.0833C57.5005 27.0833 50.1697 29.307 43.9343 33.4734C37.699 37.6397 32.8391 43.5615 29.9693 50.4898C27.0994 57.4182 26.3486 65.042 27.8116 72.3971C29.2746 79.7522 32.8858 86.5083 38.1886 91.811C43.4913 97.1138 50.2474 100.725 57.6025 102.188C64.9576 103.651 72.5814 102.9 79.5098 100.03C86.4381 97.1605 92.3599 92.3007 96.5263 86.0653C100.693 79.8299 102.916 72.4991 102.916 64.9999C102.916 54.9438 98.9216 45.2995 91.8108 38.1888C84.7001 31.078 75.0558 27.0833 64.9997 27.0833ZM64.9997 97.4999C58.5718 97.4999 52.2883 95.5938 46.9437 92.0227C41.5991 88.4515 37.4335 83.3757 34.9736 77.4371C32.5138 71.4985 31.8702 64.9639 33.1242 58.6595C34.3782 52.3551 37.4735 46.5642 42.0187 42.0189C46.5639 37.4737 52.3549 34.3784 58.6593 33.1244C64.9636 31.8704 71.4983 32.514 77.4369 34.9738C83.3755 37.4337 88.4513 41.5993 92.0225 46.9439C95.5936 52.2885 97.4997 58.572 97.4997 64.9999C97.4997 73.6195 94.0756 81.886 87.9807 87.9809C81.8857 94.0758 73.6192 97.4999 64.9997 97.4999Z" fill="#2C2C2C"/>
<path d="M124.096 53.1375C119.356 51.7833 114.888 51.1333 112.477 45.2563C110.067 39.3792 113.1 35.3438 115.185 31.5792C116.034 30.0271 116.353 28.2404 116.094 26.4904C115.835 24.7405 115.012 23.1229 113.75 21.8833L108.117 16.25C106.867 15.0009 105.245 14.193 103.496 13.9487C101.746 13.7043 99.9645 14.0368 98.4208 14.8958L94.6292 17.0083C93.1203 17.8453 91.4419 18.3307 89.7192 18.4281C87.9966 18.5256 86.2741 18.2327 84.6805 17.5713C83.0869 16.9099 81.6632 15.8971 80.5158 14.6084C79.3684 13.3198 78.5269 11.7886 78.0542 10.1292L76.8625 5.98542C76.3937 4.26808 75.3739 2.75221 73.9598 1.67084C72.5457 0.589473 70.8156 0.00245023 69.0354 8.1242e-06H60.9104C59.1408 -0.00249353 57.4188 0.572814 56.006 1.63849C54.5933 2.70417 53.567 4.20194 53.0833 5.90418C51.8375 10.2646 51.1333 15.0583 45.2563 17.4958C39.3792 19.9333 35.2354 16.8729 31.525 14.7875C29.9761 13.9551 28.1989 13.6477 26.4604 13.9114C24.7218 14.1751 23.1158 14.9957 21.8833 16.25L16.25 21.8833C14.9966 23.1293 14.1836 24.7501 13.9343 26.4998C13.6851 28.2495 14.0131 30.0327 14.8688 31.5792L16.9813 35.3708C17.8186 36.8779 18.3049 38.5545 18.4041 40.2757C18.5033 41.9968 18.2127 43.7182 17.5541 45.3115C16.8954 46.9047 15.8857 48.3288 14.6001 49.4775C13.3145 50.6262 11.7862 51.4699 10.1292 51.9458L5.95834 53.1375C4.24603 53.6113 2.73621 54.6332 1.66007 56.0469C0.583937 57.4605 0.000817413 59.1879 8.1242e-06 60.9646V69.0896C-0.00249354 70.8592 0.572814 72.5813 1.63849 73.994C2.70417 75.4068 4.20195 76.433 5.90418 76.9167C10.6167 78.2438 15.1125 78.9208 17.5229 84.7979C19.9333 90.675 16.9271 94.7104 14.8146 98.475C13.9788 100.021 13.667 101.797 13.9258 103.535C14.1846 105.273 15.0001 106.881 16.25 108.117L21.8833 113.75C23.1293 115.003 24.7501 115.816 26.4998 116.066C28.2495 116.315 30.0327 115.987 31.5792 115.131L35.425 112.992C36.9282 112.164 38.5981 111.685 40.3113 111.59C42.0245 111.494 43.7373 111.785 45.3231 112.44C46.909 113.095 48.3274 114.098 49.4737 115.375C50.62 116.652 51.4648 118.17 51.9458 119.817L53.1375 124.042C53.6113 125.754 54.6332 127.264 56.0469 128.34C57.4605 129.416 59.188 129.999 60.9646 130H69.0896C70.8592 130.003 72.5813 129.427 73.994 128.362C75.4068 127.296 76.433 125.798 76.9167 124.096C78.2438 119.383 78.9208 114.888 84.7979 112.477C90.675 110.067 94.6563 113.073 98.475 115.185C100.021 116.021 101.797 116.333 103.535 116.074C105.273 115.815 106.881 115 108.117 113.75L113.75 108.117C114.999 106.867 115.807 105.245 116.051 103.496C116.296 101.746 115.963 99.9645 115.104 98.4208L112.965 94.575C112.142 93.0746 111.666 91.409 111.571 89.7005C111.477 87.992 111.766 86.2841 112.418 84.7021C113.07 83.1201 114.068 81.7042 115.339 80.5585C116.61 79.4128 118.122 78.5663 119.763 78.0813L124.042 76.8625C125.754 76.3887 127.264 75.3668 128.34 73.9531C129.416 72.5395 129.999 70.8121 130 69.0354V60.9104C129.991 59.1501 129.41 57.4404 128.345 56.0385C127.28 54.6367 125.789 53.6187 124.096 53.1375ZM124.583 69.0354C124.583 71.3917 122.85 71.5813 118.354 72.8542C115.923 73.5615 113.682 74.8071 111.797 76.4985C109.912 78.1899 108.433 80.2839 107.468 82.625C106.503 84.9662 106.077 87.4946 106.222 90.0227C106.367 92.5508 107.08 95.0139 108.306 97.2292C110.446 101.075 111.719 102.646 109.985 104.298C104.19 110.094 103.323 111.746 101.048 110.473C96.4167 107.765 90.8646 104.108 82.55 107.548C70.0104 112.721 74.425 124.61 69.0083 124.61C57.7688 124.61 59.2313 125.829 57.1188 118.408C56.0933 114.892 53.955 111.804 51.025 109.606C48.095 107.409 44.5313 106.221 40.8688 106.221C35.8854 106.221 33.0958 108.144 28.8979 110.473C26.6229 111.719 25.7563 110.094 19.9604 104.298C18.1729 102.51 19.6354 100.858 21.6396 97.2292C22.866 95.0121 23.5773 92.5472 23.7207 90.0176C23.8642 87.488 23.4361 84.9585 22.4683 82.617C21.5004 80.2754 20.0177 78.1819 18.1301 76.4918C16.2425 74.8017 13.9984 73.5584 11.5646 72.8542C7.47501 71.6625 5.41668 71.5271 5.41668 69.0354C5.41668 60.6396 4.90209 59.0688 7.39376 58.3646C12.8104 56.7938 19.1479 55.5208 22.5063 47.3958C25.8646 39.2708 22.3167 33.8542 19.5542 28.9521C18.3083 26.6771 19.9333 25.7833 25.7292 20.0146C27.4625 18.2813 28.9792 19.5813 32.7167 21.6667C34.9376 22.8822 37.4029 23.5841 39.931 23.7206C42.4591 23.8571 44.9856 23.4248 47.3245 22.4555C49.6633 21.4861 51.755 20.0045 53.4454 18.1197C55.1357 16.2348 56.3818 13.9948 57.0917 11.5646C58.4188 7.15001 58.5 5.41667 60.9646 5.41667C69.2521 5.41667 70.9313 4.90209 71.6354 7.39376C73.0979 12.4583 74.3438 19.0938 82.6042 22.5063C95.225 27.7333 100.506 16.25 104.271 20.0146C112.152 27.8688 112.071 26.0271 108.306 32.7979C107.08 35.0132 106.367 37.4763 106.222 40.0044C106.077 42.5325 106.503 45.0609 107.468 47.4021C108.433 49.7433 109.912 51.8372 111.797 53.5286C113.682 55.22 115.923 56.4656 118.354 57.1729C125.829 59.2583 124.583 57.9042 124.583 69.0354Z" fill="#2C2C2C"/>
</g>
<defs>
<clipPath id="clip0_1467_21">
<rect width="130" height="130" fill="white"/>
</clipPath>
</defs>
</svg>
