<svg width="130" height="150" viewBox="0 0 130 150" fill="none" xmlns="http://www.w3.org/2000/svg">
<path d="M54.4156 104.613C54.4156 100.487 53.0344 96.6787 50.5485 93.5048L33.4227 73.8268C32.5941 72.8746 31.213 72.5572 30.1081 72.8746C29.0032 73.192 27.8983 74.4616 27.6221 76.0485C27.0697 79.2224 25.6886 86.2049 27.0697 91.9179L27.3459 92.5527L33.4227 99.5352L31.4892 99.8526C28.727 99.8526 26.241 98.5831 24.3075 96.3613L17.1257 88.1093V68.7486C17.1257 63.0356 14.0873 57.9574 9.66774 55.7357C7.45797 54.7835 4.97198 54.1487 2.76221 54.1487H0V92.8701C0 96.044 1.10488 98.9004 3.03843 101.122L22.9263 123.974V124.926H15.4684V149.048H60.7686V124.926H54.4156V104.613ZM6.62931 96.9961C5.80064 96.044 5.2482 94.7744 5.2482 93.1875V61.1313C5.80064 61.4487 6.62931 61.4487 7.18175 61.766C9.66774 63.0356 11.3251 65.8921 11.3251 68.7486V90.9657L20.1641 101.122C23.2026 104.613 27.3459 106.518 31.4892 106.518L38.3947 105.248C39.4996 104.931 40.6045 103.979 40.8807 102.709C41.1569 101.44 40.8807 99.8526 40.0521 98.9004L31.7654 89.3788C31.213 86.8397 31.4892 83.9832 31.7654 81.4441L46.1289 97.9483C47.7862 99.8526 48.6149 102.074 48.6149 104.613V125.561H27.8983V124.609C27.8983 122.705 27.3459 121.118 26.241 119.848L6.62931 96.9961ZM54.968 131.909V143.335H20.9928V131.909H22.6501H54.4156H54.968ZM119.88 56.0531C115.46 58.2748 112.422 63.353 112.422 69.066V88.4266L105.24 96.6787C103.307 98.9004 100.821 100.17 98.0585 100.17L96.1249 99.8526L102.202 92.8701L102.478 92.2353C103.859 86.2049 102.754 79.5398 101.926 76.0485C101.649 74.779 100.821 73.5094 99.4396 73.192C98.3347 72.8746 96.9536 73.192 96.1249 74.1442L78.9992 93.8222C76.5132 96.6787 75.1321 100.805 75.1321 104.931V125.878H68.7791V150H114.079V125.878H106.898V124.609L126.785 101.757C128.719 99.5352 129.824 96.6787 129.824 93.5048V54.4661H127.062C124.299 54.4661 122.09 55.1009 119.88 56.0531ZM108.279 131.909V143.335H74.3035V131.909H75.1321H106.898H108.279ZM124.023 93.1875C124.023 94.7744 123.471 96.044 122.642 96.9961L102.754 119.848C101.649 121.118 101.097 122.705 101.097 124.609V125.561H80.3803V104.613C80.3803 102.074 81.209 99.8526 82.8663 97.9483L97.2298 81.4441C97.506 83.9832 97.7823 86.8397 97.2298 89.3788L88.9432 98.9004C88.1145 99.8526 87.8383 101.44 88.1145 102.709C88.3907 103.979 89.4956 104.931 90.6005 105.248L97.2298 106.518H97.7823C102.202 106.518 106.069 104.613 109.107 101.122L117.946 90.9657V69.066C117.946 65.8921 119.604 63.0356 122.09 62.0834C122.642 61.766 123.471 61.4487 124.023 61.4487V93.1875ZM65.4644 21.4578C55.5204 20.823 47.2338 29.7099 46.6814 41.1358C46.4051 46.5314 48.0625 51.927 51.3771 56.0531C54.6918 60.1791 59.1113 62.4008 63.8071 62.7182C64.0833 62.7182 64.3595 62.7182 64.6357 62.7182C74.0273 62.7182 82.0377 54.1487 82.5901 43.0402C83.1425 31.6142 75.4084 22.0926 65.4644 21.4578ZM64.0833 56.3705C60.7686 56.0531 57.7302 54.4661 55.5204 51.6096C53.3107 48.7531 52.2058 45.2619 52.2058 41.4532C52.482 33.8359 58.0064 27.8055 64.6357 27.8055C64.912 27.8055 65.1882 27.8055 65.1882 27.8055C72.0937 28.1229 77.3419 34.7881 77.0657 42.7228C76.7895 50.6575 70.9888 56.6878 64.0833 56.3705Z" fill="#2C2C2C"/>
<path d="M100.823 48.7535V34.7884L93.6413 32.8841C93.0889 30.0276 91.984 27.4885 90.6029 24.632L94.47 17.3321L85.6309 7.49303L79.2778 11.9365C77.068 10.3495 74.5821 9.39736 72.0961 8.76258L70.4387 0.510498H58.285L56.6277 8.76258C54.1417 9.39736 51.9319 10.6669 49.4459 12.2539L43.0928 7.81042L34.8062 17.9668L38.6733 25.2668C37.2922 27.8059 36.4635 30.6624 35.6349 33.5188L28.4531 35.4232V49.3882L35.6349 51.2926C36.1873 54.1491 37.2922 56.6882 38.6733 59.5447L34.8062 66.8446L43.6453 76.6836L49.9984 72.2402C52.2081 73.8271 54.6941 74.7793 57.1801 75.4141L58.8374 83.6661H70.9912L72.6485 75.4141C75.1345 74.7793 77.3443 73.5097 79.8302 71.9228L86.1833 76.3662L94.7462 66.2098L90.8791 58.9099C92.2602 56.3708 93.0889 53.5143 93.6413 50.6578L100.823 48.7535ZM88.9455 45.5796L88.6693 47.4839C88.1169 50.9752 87.012 54.1491 85.3547 57.3229L84.526 58.9099L87.8407 65.2576L85.3547 68.1141L79.8302 64.3055L78.4491 65.575C75.9632 67.4794 72.9247 69.0663 70.1625 69.7011L68.5052 70.0185L67.1241 77.3184H63.5332L61.8759 70.0185L60.2185 69.7011C57.1801 69.0663 54.4179 67.7967 51.6557 65.8924L50.2746 64.9403L44.7502 68.7489L41.988 65.575L45.3026 59.2273L44.1977 57.6403C42.5404 54.7838 41.1593 51.2926 40.6069 48.1187L40.3306 46.2144L33.9775 44.6274V40.5014L40.3306 38.5971L40.6069 36.6927C41.1593 33.2015 42.2642 30.0276 43.9215 26.8537L44.7502 25.2668L41.4355 18.919L43.9215 16.0625L49.4459 19.8712L50.827 18.6016C53.313 16.6973 56.3515 15.1103 59.1137 14.4756L60.771 14.1582L62.1521 6.85826H65.743L67.4003 14.1582L69.0576 14.4756C72.0961 15.1103 74.8583 16.3799 77.6205 18.2842L79.0016 19.2364L84.526 15.4277L87.012 18.2842L83.6973 24.632L84.8022 26.2189C86.4596 29.0754 87.8407 32.5667 88.3931 35.7406L88.6693 37.6449L95.0224 39.2318V43.3579L88.9455 45.5796Z" fill="#2C2C2C"/>
</svg>
