<svg width="22" height="21" viewBox="0 0 22 21" fill="none" xmlns="http://www.w3.org/2000/svg">
<g clip-path="url(#clip0_1580_99)">
<path d="M6.44426 0.0736786C5.27386 0.126389 4.4746 0.304679 3.77588 0.566759C3.05274 0.835769 2.43982 1.19676 1.82998 1.78098C1.22014 2.3652 0.844598 2.95068 0.564758 3.642C0.293938 4.31043 0.110458 5.07399 0.0587578 6.19182C0.00705784 7.30965 -0.00438216 7.66896 0.00133784 10.5203C0.00705784 13.3717 0.0202578 13.7291 0.0770178 14.8493C0.132898 15.9663 0.319018 16.729 0.593578 17.3962C0.875838 18.0864 1.25358 18.6713 1.86584 19.2536C2.4781 19.8359 3.09102 20.1936 3.81702 20.4611C4.51662 20.7192 5.31676 20.8952 6.4876 20.9441C7.65844 20.993 8.0353 21.0044 11.0216 20.9989C14.0079 20.9935 14.3838 20.9809 15.5571 20.9277C16.7304 20.8746 17.5252 20.6957 18.2244 20.4349C18.9475 20.1648 19.5607 19.8049 20.1703 19.2202C20.7799 18.6356 21.1552 18.0497 21.4348 17.3579C21.7059 16.6901 21.89 15.9264 21.9408 14.8096C21.9921 13.6888 22.0042 13.331 21.9985 10.48C21.9928 7.62906 21.9793 7.27164 21.9237 6.15192C21.868 5.0322 21.6817 4.27179 21.4073 3.6042C21.1246 2.91393 20.7473 2.3295 20.1353 1.74675C19.5233 1.164 18.909 0.805949 18.1846 0.539669C17.4845 0.281159 16.6848 0.104969 15.514 0.0566686C14.3431 0.00836863 13.9663 -0.00402137 10.9789 0.00143863C7.99152 0.00689863 7.61752 0.0190786 6.44426 0.0736786ZM6.57274 19.0552C5.50024 19.0106 4.9179 18.8405 4.52982 18.6982C4.0159 18.5092 3.64982 18.2807 3.26306 17.9151C2.8763 17.5495 2.6387 17.1988 2.43806 16.7092C2.28736 16.3388 2.10586 15.7836 2.0557 14.7598C2.00114 13.6533 1.9897 13.3211 1.98332 10.5178C1.97694 7.71453 1.98816 7.38273 2.03898 6.27582C2.08474 5.25291 2.26404 4.69641 2.41298 4.32618C2.61098 3.83499 2.84946 3.48618 3.23336 3.11721C3.61726 2.74824 3.98356 2.52102 4.49682 2.3295C4.88446 2.18502 5.46614 2.01324 6.5382 1.96452C7.69826 1.91202 8.04586 1.90152 10.9822 1.89543C13.9185 1.88934 14.267 1.89984 15.4275 1.94856C16.4991 1.99308 17.0824 2.16255 17.4698 2.30556C17.9839 2.49456 18.3498 2.72157 18.7363 3.08865C19.1229 3.45573 19.3611 3.80412 19.5618 4.2951C19.7133 4.66407 19.8933 5.2191 19.9439 6.24306C19.9991 7.35039 20.0117 7.6824 20.0169 10.4851C20.0222 13.2877 20.0119 13.6206 19.9611 14.7271C19.9142 15.7508 19.7364 16.3069 19.5871 16.6777C19.3891 17.1681 19.1504 17.5177 18.7662 17.8865C18.3821 18.2553 18.0163 18.4825 17.5028 18.674C17.1156 18.8183 16.5332 18.9905 15.4621 19.0392C14.302 19.0913 13.9544 19.1022 11.017 19.1083C8.07952 19.1144 7.73302 19.103 6.57296 19.0552M15.5402 4.88835C15.5406 5.13757 15.6184 5.38107 15.7639 5.58806C15.9093 5.79504 16.1158 5.95621 16.3571 6.05118C16.5985 6.14615 16.864 6.17065 17.12 6.12159C17.376 6.07253 17.611 5.95212 17.7952 5.77557C17.9795 5.59902 18.1048 5.37427 18.1553 5.12974C18.2057 4.88522 18.1791 4.6319 18.0787 4.40184C17.9783 4.17177 17.8087 3.97528 17.5914 3.83723C17.374 3.69917 17.1186 3.62575 16.8575 3.62625C16.5075 3.62692 16.1721 3.76025 15.9251 3.99693C15.678 4.2336 15.5396 4.55425 15.5402 4.88835ZM5.35196 10.5107C5.35812 13.4885 7.89164 15.897 11.0106 15.8913C14.1295 15.8856 16.6545 13.4675 16.6485 10.4897C16.6426 7.51188 14.1084 5.10276 10.989 5.10864C7.86964 5.11452 5.34602 7.5333 5.35196 10.5107ZM7.33328 10.5069C7.33184 9.81465 7.54549 9.13755 7.9472 8.5612C8.34892 7.98486 8.92065 7.53517 9.59011 7.26899C10.2596 7.00281 10.9967 6.93211 11.7082 7.06581C12.4198 7.19952 13.0738 7.53163 13.5876 8.02016C14.1015 8.50868 14.452 9.13167 14.5949 9.81035C14.7378 10.489 14.6666 11.1929 14.3904 11.833C14.1142 12.4731 13.6454 13.0206 13.0432 13.4063C12.441 13.7921 11.7325 13.9987 11.0073 14C10.5257 14.001 10.0487 13.9114 9.60346 13.7364C9.15819 13.5613 8.75342 13.3043 8.41224 12.9799C8.07107 12.6555 7.80018 12.2702 7.61505 11.8459C7.42992 11.4215 7.33417 10.9666 7.33328 10.5069Z" fill="white"/>
</g>
<defs>
<clipPath id="clip0_1580_99">
<rect width="22" height="21" fill="white"/>
</clipPath>
</defs>
</svg>
