<svg width="18" height="18" viewBox="0 0 18 18" fill="none" xmlns="http://www.w3.org/2000/svg">
<g clip-path="url(#clip0_1580_99)">
<path d="M5.27257 0.063188C4.31497 0.108368 3.66103 0.261188 3.08935 0.485828C2.49769 0.716408 1.99621 1.02583 1.49725 1.52659C0.998294 2.02735 0.691034 2.52919 0.462075 3.12175C0.240495 3.69469 0.0903746 4.34917 0.0480746 5.30731C0.0057746 6.26545 -0.00358541 6.57343 0.00109459 9.01747C0.00577459 11.4615 0.0165746 11.7679 0.0630146 12.728C0.108735 13.6854 0.261015 14.3392 0.485655 14.911C0.716594 15.5027 1.02565 16.004 1.52659 16.5031C2.02753 17.0023 2.52901 17.3088 3.12301 17.5381C3.69541 17.7593 4.35007 17.9102 5.30803 17.9521C6.26599 17.9941 6.57433 18.0038 9.01765 17.9991C11.461 17.9944 11.7686 17.9836 12.7285 17.9381C13.6885 17.8925 14.3388 17.7392 14.9109 17.5156C15.5025 17.2841 16.0042 16.9756 16.503 16.4745C17.0017 15.9734 17.3088 15.4712 17.5376 14.8783C17.7594 14.3059 17.91 13.6512 17.9516 12.694C17.9935 11.7333 18.0034 11.4266 17.9988 8.98291C17.9941 6.53923 17.9831 6.23287 17.9376 5.27311C17.892 4.31335 17.7396 3.66157 17.5151 3.08935C17.2838 2.49769 16.9751 1.99675 16.4743 1.49725C15.9736 0.997748 15.471 0.690848 14.8783 0.462608C14.3055 0.241028 13.6512 0.090008 12.6933 0.048608C11.7353 0.00720799 11.427 -0.00341201 8.98273 0.00126799C6.53851 0.00594799 6.23251 0.016388 5.27257 0.063188ZM5.37769 16.333C4.50019 16.2949 4.02373 16.1491 3.70621 16.027C3.28573 15.865 2.98621 15.6692 2.66977 15.3558C2.35333 15.0424 2.15893 14.7418 1.99477 14.3222C1.87147 14.0047 1.72297 13.5288 1.68193 12.6513C1.63729 11.7029 1.62793 11.4181 1.62271 9.01531C1.61749 6.61249 1.62667 6.32809 1.66825 5.37931C1.70569 4.50253 1.85239 4.02553 1.97425 3.70819C2.13625 3.28717 2.33137 2.98819 2.64547 2.67193C2.95957 2.35567 3.25927 2.16091 3.67921 1.99675C3.99637 1.87291 4.47229 1.72567 5.34943 1.68391C6.29857 1.63891 6.58297 1.62991 8.98543 1.62469C11.3879 1.61947 11.673 1.62847 12.6225 1.67023C13.4993 1.70839 13.9765 1.85365 14.2935 1.97623C14.7141 2.13823 15.0135 2.33281 15.3297 2.64745C15.646 2.96209 15.8409 3.26071 16.0051 3.68155C16.1291 3.99781 16.2763 4.47355 16.3177 5.35123C16.3629 6.30037 16.3732 6.58495 16.3775 8.98723C16.3818 11.3895 16.3734 11.6748 16.3318 12.6232C16.2934 13.5007 16.148 13.9774 16.0258 14.2952C15.8638 14.7155 15.6685 15.0152 15.3542 15.3313C15.0399 15.6474 14.7406 15.8422 14.3205 16.0063C14.0037 16.13 13.5272 16.2776 12.6508 16.3193C11.7016 16.364 11.4172 16.3733 9.01387 16.3786C6.61051 16.3838 6.32701 16.3741 5.37787 16.333M12.7147 4.19005C12.715 4.40367 12.7787 4.61238 12.8977 4.7898C13.0167 4.96721 13.1856 5.10535 13.3831 5.18676C13.5806 5.26816 13.7978 5.28916 14.0073 5.24711C14.2167 5.20506 14.409 5.10185 14.5597 4.95052C14.7105 4.79919 14.813 4.60655 14.8543 4.39696C14.8956 4.18736 14.8738 3.97024 14.7917 3.77304C14.7095 3.57584 14.5708 3.40742 14.3929 3.28909C14.2151 3.17075 14.0061 3.10782 13.7925 3.10825C13.5061 3.10882 13.2317 3.22311 13.0296 3.42597C12.8275 3.62884 12.7142 3.90368 12.7147 4.19005ZM4.37887 9.00919C4.38391 11.5616 6.45679 13.626 9.00865 13.6211C11.5605 13.6163 13.6264 11.5436 13.6215 8.99119C13.6167 6.43879 11.5432 4.37383 8.99101 4.37887C6.43879 4.38391 4.37401 6.45715 4.37887 9.00919ZM5.99995 9.00595C5.99878 8.41259 6.17358 7.83222 6.50226 7.33821C6.83093 6.8442 7.29871 6.45875 7.84645 6.2306C8.39419 6.00245 8.99728 5.94184 9.57946 6.05645C10.1616 6.17105 10.6968 6.45572 11.1172 6.87445C11.5376 7.29319 11.8243 7.82718 11.9413 8.4089C12.0582 8.99063 12 9.59396 11.774 10.1426C11.548 10.6912 11.1644 11.1605 10.6717 11.4912C10.179 11.8218 9.59931 11.9989 9.00595 12.0001C8.61197 12.0009 8.22168 11.9241 7.85737 11.7741C7.49307 11.624 7.16189 11.4037 6.88274 11.1257C6.6036 10.8476 6.38197 10.5173 6.2305 10.1536C6.07902 9.78992 6.00069 9.39993 5.99995 9.00595Z" fill="black"/>
</g>
<defs>
<clipPath id="clip0_1580_99">
<rect width="18" height="18" fill="white"/>
</clipPath>
</defs>
</svg>
