<svg width="32" height="33" viewBox="0 0 32 33" fill="none" xmlns="http://www.w3.org/2000/svg">
<g clip-path="url(#clip0_1580_99)">
<path d="M9.37347 0.115641C7.67107 0.198471 6.50851 0.478641 5.49219 0.890481C4.44035 1.31321 3.54883 1.88048 2.66179 2.79854C1.77475 3.7166 1.22851 4.63664 0.821466 5.723C0.427546 6.77339 0.160666 7.97327 0.0854659 9.72986C0.010266 11.4865 -0.00637406 12.0511 0.00194594 16.5318C0.0102659 21.0126 0.0294659 21.5742 0.112026 23.3344C0.193306 25.0897 0.464026 26.2883 0.863386 27.3367C1.27395 28.4214 1.82339 29.3404 2.71395 30.2555C3.60451 31.1706 4.49603 31.7326 5.55203 32.153C6.56963 32.5586 7.73347 32.8351 9.43651 32.912C11.1395 32.9889 11.6877 33.0067 16.0314 32.9982C20.3751 32.9896 20.9219 32.9698 22.6285 32.8863C24.3351 32.8028 25.4912 32.5216 26.5082 32.1118C27.56 31.6874 28.4519 31.1218 29.3386 30.2031C30.2253 29.2843 30.7712 28.3636 31.1779 27.2766C31.5722 26.2272 31.84 25.027 31.9139 23.2721C31.9885 21.5109 32.0061 20.9485 31.9978 16.4685C31.9895 11.9884 31.9699 11.4267 31.889 9.66716C31.808 7.9076 31.537 6.71267 31.1379 5.6636C30.7267 4.57889 30.1779 3.6605 29.2877 2.74475C28.3975 1.829 27.504 1.26635 26.4503 0.847911C25.432 0.441681 24.2688 0.164811 22.5658 0.0889112C20.8627 0.0130112 20.3146 -0.0064588 15.9693 0.0021212C11.624 0.0107012 11.08 0.0298412 9.37347 0.115641ZM9.56035 29.9437C8.00035 29.8737 7.15331 29.6064 6.58883 29.3827C5.84131 29.0857 5.30883 28.7266 4.74627 28.1521C4.18371 27.5776 3.83811 27.0265 3.54627 26.2573C3.32707 25.6751 3.06307 24.8026 2.99011 23.1939C2.91075 21.4551 2.89411 20.933 2.88483 16.5279C2.87555 12.1227 2.89187 11.6013 2.96579 9.86186C3.03235 8.25443 3.29315 7.37993 3.50979 6.79814C3.79779 6.02627 4.14467 5.47814 4.70307 4.89833C5.26147 4.31852 5.79427 3.96146 6.54083 3.6605C7.10467 3.43346 7.95075 3.16352 9.51011 3.08696C11.1975 3.00446 11.7031 2.98796 15.9741 2.97839C20.2451 2.96882 20.752 2.98532 22.44 3.06188C23.9987 3.13184 24.8471 3.39815 25.4106 3.62288C26.1584 3.91988 26.6906 4.27661 27.2528 4.85345C27.8151 5.43029 28.1616 5.97776 28.4535 6.7493C28.6739 7.32911 28.9357 8.2013 29.0093 9.81038C29.0896 11.5505 29.1079 12.0722 29.1155 16.4764C29.1232 20.8806 29.1082 21.4036 29.0343 23.1424C28.9661 24.7511 28.7075 25.625 28.4903 26.2078C28.2023 26.9783 27.8551 27.5278 27.2963 28.1072C26.7376 28.6867 26.2055 29.0438 25.4586 29.3447C24.8954 29.5714 24.0483 29.842 22.4903 29.9186C20.8029 30.0004 20.2973 30.0176 16.0247 30.0272C11.752 30.0367 11.248 30.0189 9.56067 29.9437M22.6039 7.68155C22.6045 8.07319 22.7177 8.45583 22.9293 8.78109C23.1408 9.10635 23.4411 9.35961 23.7922 9.50885C24.1433 9.65809 24.5295 9.6966 24.9018 9.61951C25.2741 9.54241 25.6159 9.35318 25.884 9.07575C26.152 8.79831 26.3343 8.44514 26.4077 8.06088C26.4811 7.67663 26.4423 7.27857 26.2963 6.91703C26.1503 6.5555 25.9036 6.24673 25.5874 6.02979C25.2713 5.81284 24.8998 5.69747 24.52 5.69825C24.0109 5.6993 23.5231 5.90882 23.1637 6.28075C22.8044 6.65267 22.603 7.15654 22.6039 7.68155ZM7.78467 16.5166C7.79363 21.196 11.4787 24.9808 16.0154 24.9719C20.552 24.963 24.2247 21.163 24.216 16.4836C24.2074 11.8042 20.5213 8.01848 15.984 8.02772C11.4467 8.03696 7.77603 11.8379 7.78467 16.5166ZM10.6666 16.5107C10.6645 15.4229 10.9753 14.3589 11.5596 13.4532C12.1439 12.5475 12.9755 11.8408 13.9492 11.4226C14.923 11.0043 15.9952 10.8932 17.0302 11.1033C18.0651 11.3134 19.0165 11.8353 19.7639 12.603C20.5112 13.3706 21.0211 14.3496 21.2289 15.4161C21.4367 16.4826 21.3332 17.5887 20.9315 18.5946C20.5298 19.6004 19.8478 20.4608 18.9719 21.0669C18.096 21.6731 17.0654 21.9978 16.0106 21.9999C15.3102 22.0014 14.6163 21.8607 13.9687 21.5856C13.321 21.3105 12.7322 20.9066 12.236 20.3969C11.7397 19.8871 11.3457 19.2816 11.0764 18.6148C10.8072 17.948 10.6679 17.233 10.6666 16.5107Z" fill="white"/>
</g>
<defs>
<clipPath id="clip0_1580_99">
<rect width="32" height="33" fill="white"/>
</clipPath>
</defs>
</svg>
