<svg width="18" height="14" viewBox="0 0 18 14" fill="none" xmlns="http://www.w3.org/2000/svg">
<path d="M18 1.12512V12.3751C18 13.0126 17.5125 13.5001 16.875 13.5001H15.75V3.29037L9 8.13762L2.25 3.29037V13.5001H1.125C0.48675 13.5001 0 13.0126 0 12.3751V1.12512C0 0.806369 0.1215 0.525119 0.32325 0.324119C0.428538 0.219389 0.553708 0.136773 0.691396 0.0811312C0.829084 0.0254893 0.97651 -0.00205482 1.125 0.000119378H1.5L9 5.43762L16.5 0.000119378H16.875C17.1938 0.000119378 17.475 0.121619 17.6768 0.324119C17.8793 0.525119 18 0.806369 18 1.12512Z" fill="black"/>
</svg>
