<svg width="32" height="24" viewBox="0 0 32 24" fill="none" xmlns="http://www.w3.org/2000/svg">
<path d="M31.8462 2.00019V22C31.8462 23.1333 30.9837 24 29.8558 24H27.8654V5.84949L15.9231 14.4668L3.98077 5.84949V24H1.99038C0.861173 24 0 23.1333 0 22V2.00019C0 1.43353 0.214962 0.933537 0.571904 0.576207C0.758183 0.390022 0.979638 0.24315 1.22324 0.144232C1.46684 0.0453138 1.72767 -0.00365298 1.99038 0.000212226H2.65385L15.9231 9.66679L29.1923 0.000212226H29.8558C30.4197 0.000212226 30.9173 0.21621 31.2742 0.576207C31.6325 0.933537 31.8462 1.43353 31.8462 2.00019Z" fill="white"/>
</svg>
