<svg width="24" height="32" viewBox="0 0 24 32" fill="none" xmlns="http://www.w3.org/2000/svg">
<path d="M12 0.176758C8.8185 0.180517 5.76833 1.51179 3.51866 3.87851C1.269 6.24523 0.00357316 9.45412 0 12.8012C0 17.9377 3.5445 22.2032 7.299 26.718C8.487 28.1477 9.717 29.6264 10.812 31.1223C10.9521 31.3136 11.1321 31.4684 11.3381 31.575C11.544 31.6816 11.7705 31.737 12 31.737C12.2295 31.737 12.456 31.6816 12.6619 31.575C12.8679 31.4684 13.0479 31.3136 13.188 31.1223C14.283 29.6264 15.513 28.1477 16.701 26.718C20.4555 22.2032 24 17.9377 24 12.8012C23.9964 9.45412 22.731 6.24523 20.4813 3.87851C18.2317 1.51179 15.1815 0.180517 12 0.176758ZM12 17.5353C11.11 17.5353 10.24 17.2577 9.49993 16.7375C8.75991 16.2173 8.18314 15.4779 7.84254 14.6128C7.50195 13.7478 7.41283 12.7959 7.58647 11.8776C7.7601 10.9592 8.18868 10.1157 8.81802 9.45362C9.44736 8.79153 10.2492 8.34065 11.1221 8.15798C11.995 7.97531 12.8998 8.06906 13.7221 8.42738C14.5443 8.7857 15.2471 9.39248 15.7416 10.171C16.2361 10.9495 16.5 11.8648 16.5 12.8012C16.5 14.0567 16.0259 15.2609 15.182 16.1487C14.3381 17.0365 13.1935 17.5353 12 17.5353Z" fill="#EB4D4A"/>
</svg>
