<svg width="25" height="27" viewBox="0 0 25 27" fill="none" xmlns="http://www.w3.org/2000/svg">
<path d="M18.9143 16.593L16.8233 17.8322C16.5724 17.9808 16.2821 18.039 15.9968 17.9978C15.7115 17.9565 15.4469 17.8182 15.2433 17.604L8.26435 10.262C8.06081 10.0478 7.92944 9.76937 7.89026 9.46928C7.85108 9.1692 7.90625 8.86386 8.04735 8.59982L9.22535 6.40008C9.43739 6.00417 9.52041 5.54612 9.46173 5.09591C9.40304 4.64569 9.20587 4.22807 8.90035 3.90682L5.76635 0.609833C5.58266 0.416498 5.36457 0.263131 5.12452 0.158494C4.88448 0.053857 4.62718 0 4.36735 0C4.10751 0 3.85022 0.053857 3.61018 0.158494C3.37013 0.263131 3.15204 0.416498 2.96835 0.609833L1.54535 2.10579C0.713222 2.98117 0.183173 4.1241 0.0394849 5.35283C-0.104203 6.58156 0.146717 7.82556 0.752349 8.88702L1.46635 10.1389C5.11259 16.5319 10.2591 21.832 16.4123 25.5308L16.5533 25.616C18.6553 26.8795 21.2523 26.5113 22.9353 24.7418L24.4213 23.1785C24.6051 22.9853 24.7509 22.7559 24.8504 22.5033C24.9498 22.2508 25.001 21.9801 25.001 21.7068C25.001 21.4334 24.9498 21.1628 24.8504 20.9102C24.7509 20.6577 24.6051 20.4283 24.4213 20.235L21.2853 16.9359C20.98 16.6141 20.5829 16.4063 20.1547 16.3444C19.7266 16.2825 19.2909 16.3698 18.9143 16.593Z" fill="#EDF1F4"/>
</svg>
